<?xml version="1.0" encoding="utf-8"?>
<!-- Generator: Adobe Illustrator 22.0.0, SVG Export Plug-In . SVG Version: 6.00 Build 0)  -->
<svg version="1.1" id="Layer_1" xmlns="http://www.w3.org/2000/svg" xmlns:xlink="http://www.w3.org/1999/xlink" x="0px" y="0px"
	 viewBox="0 0 332 130" style="enable-background:new 0 0 332 130;" xml:space="preserve">
<style type="text/css">
	.st0{fill:#22A1E0;}
</style>
<path class="st0" d="M39.8,68.3c9.1,6.5,18.3,13,27.4,19.5c0.1,0.1,0.2,0.2,0.4,0.1c0-0.1,0-0.2,0-0.3c0-7.2,0-14.3,0-21.5
	c0-0.4-0.2-0.6-0.4-0.8c-2.6-1.9-5.3-3.7-7.9-5.6c-1.2-0.8-2.4-1.7-3.6-2.6c4.3-2.8,8.5-5.5,12.7-8.3C49.9,35.7,31.5,22.6,13,9.3
	c0,0.9,0,1.7,0,2.6c0,6.4,0,12.8,0,19.2c0,0.4,0.1,0.7,0.5,0.9c1.1,0.8,2.2,1.6,3.3,2.4C24,39.6,31.4,44.8,38.6,50
	c3.3,2.3,6.6,4.7,9.9,7.1c-0.2,0.2-0.4,0.3-0.6,0.4c-2.7,1.7-5.3,3.5-8,5.2c-0.4,0.3-0.7,0.3-1.1,0C31.2,57.3,23.6,51.9,16,46.5
	c-1-0.7-2-1.4-3-2.1c0,0.2,0,0.2,0,0.3c0,7.4,0,14.8,0,22.2c0,0.4,0.2,0.6,0.5,0.8c2.8,2,5.7,4,8.5,6c0.5,0.3,0.4,0.5,0,0.8
	c-3.1,2-6.2,4.1-9.4,6.1c-0.6,0.4-1.1,0.7-1.7,1.1c-0.6,0.5-0.6,0.7,0,1.1c3,2.1,5.9,4.3,8.9,6.4c15.8,11.3,31.6,22.5,47.5,33.8
	c0.1,0.1,0.2,0.3,0.4,0.1c0,0,0,0,0-0.1c0-7.2,0-14.3,0-21.5c0-0.4-0.2-0.5-0.4-0.7c-1.7-1.2-3.5-2.4-5.2-3.6
	C52,90.2,41.9,83,31.8,75.8c-0.7-0.5-1.4-1-2.1-1.6c3.1-2.1,6.2-4,9.2-6C39.3,67.9,39.5,68.1,39.8,68.3z M38.5,44.9
	c-7.5-5.3-15-10.6-22.5-16c-0.4-0.3-0.5-0.5-0.5-1c0-3.7,0-7.4,0-11.1c0-0.2,0-0.4,0-0.7C30.8,27,46,37.8,61.3,48.7
	c-1.9,1.2-3.6,2.4-5.4,3.6c-1.1,0.7-2.1,1.4-3.2,2.1c-0.4,0.2-0.6,0.2-0.9,0C47.3,51.2,42.9,48.1,38.5,44.9z M49.2,61.4
	c0.8-0.5,1.7-1.1,2.5-1.6c0.3-0.2,0.5-0.2,0.8,0c4.1,2.9,8.2,5.9,12.3,8.8c0.2,0.1,0.4,0.3,0.4,0.6c0,4.1,0,8.1,0,12.3
	c-7.5-5.3-14.8-10.6-22.3-15.9C45,64.2,47.1,62.8,49.2,61.4z M64.7,104.1c0.2,0.2,0.4,0.3,0.4,0.7c0,3.9,0,7.7,0,11.6
	c0,0,0,0.1-0.1,0.2c-15.9-11.4-31.9-22.7-47.9-34.2c1.4-0.9,2.7-1.8,4-2.6c1.5-1,3.1-2,4.6-3c0.3-0.2,0.5-0.2,0.7,0
	C39.2,85.9,52,95,64.7,104.1z M26.5,71.5c-0.3,0.2-0.4,0.1-0.7-0.1c-3.3-2.4-6.7-4.8-10-7.1c-0.2-0.1-0.3-0.3-0.3-0.6
	c0-4.2,0-8.4,0-12.7c6.8,4.8,13.5,9.6,20.3,14.4C32.6,67.5,29.5,69.5,26.5,71.5z"/>
<g>
	<path d="M137,49.2c2.4,1.5,4.3,3.5,5.7,6l-4.8,4c-2.3-3.7-5.3-5.6-9-5.6c-1.8,0-3.4,0.5-4.6,1.4c-1.3,1-1.9,2.3-1.9,4.2
		c0,1.6,0.5,2.8,1.4,3.6c0.9,0.8,2.5,1.8,4.6,2.9l4.8,2.4c3.5,1.7,6.1,3.6,7.7,5.6s2.5,4.5,2.5,7.6c0,4-1.4,7.2-4.1,9.7
		s-6.2,3.7-10.3,3.7c-3.5,0-6.7-0.9-9.5-2.7c-2.8-1.8-5.1-4.2-6.7-7.4l4.9-4c3.2,4.9,6.9,7.4,11.3,7.4c2.2,0,4-0.6,5.4-1.8
		s2.1-2.7,2.1-4.7c0-1.6-0.5-2.9-1.5-3.9s-2.6-2-4.8-3.1l-4.8-2.4c-3.2-1.5-5.6-3.3-7.4-5.3c-1.8-2-2.6-4.5-2.6-7.5
		c0-3.7,1.3-6.8,3.9-9.1c2.6-2.3,5.8-3.5,9.6-3.5C131.8,46.9,134.5,47.7,137,49.2z"/>
	<path d="M177.6,86.2h-19.3l-3.1,7.7h-7.4l18.9-47h2.3l18.9,47h-7.4L177.6,86.2z M168,60.6l-7.2,19.2h14.3L168,60.6z"/>
	<path d="M220.7,86.2h-19.3l-3.1,7.7H191l18.9-47h2.3l18.9,47h-7.4L220.7,86.2z M211.1,60.6l-7.2,19.2h14.3L211.1,60.6z"/>
	<path d="M258.9,49.2c2.4,1.5,4.3,3.5,5.7,6l-4.8,4c-2.3-3.7-5.3-5.6-9-5.6c-1.8,0-3.4,0.5-4.6,1.4c-1.3,1-1.9,2.3-1.9,4.2
		c0,1.6,0.5,2.8,1.4,3.6c0.9,0.8,2.5,1.8,4.6,2.9l4.8,2.4c3.5,1.7,6.1,3.6,7.7,5.6s2.5,4.5,2.5,7.6c0,4-1.4,7.2-4.1,9.7
		c-2.7,2.5-6.2,3.7-10.3,3.7c-3.5,0-6.7-0.9-9.5-2.7c-2.8-1.8-5.1-4.2-6.7-7.4l4.9-4c3.2,4.9,6.9,7.4,11.3,7.4c2.2,0,4-0.6,5.4-1.8
		s2-2.7,2-4.7c0-1.6-0.5-2.9-1.5-3.9s-2.6-2-4.8-3.1l-4.8-2.4c-3.2-1.5-5.6-3.3-7.4-5.3c-1.8-2-2.6-4.5-2.6-7.5
		c0-3.7,1.3-6.8,3.9-9.1c2.6-2.3,5.8-3.5,9.6-3.5C253.7,46.9,256.5,47.7,258.9,49.2z"/>
	<path d="M314.9,46.9v47H308v-29l-12.3,17.4h-2.3L281,64.9v29h-6.9v-47h2.4l18,25.8l18-25.8H314.9z"/>
</g>
</svg>
